<svg xmlns="http://www.w3.org/2000/svg" viewBox="0 0 380 520" width="380" height="520">
  <defs>
    <linearGradient id="e1" x1="0" y1="0" x2="1" y2="1">
      <stop offset="0%" stop-color="#0a1628"/>
      <stop offset="100%" stop-color="#162040"/>
    </linearGradient>
  </defs>
  <rect width="380" height="520" fill="url(#e1)"/>
  <!-- traces -->
  <g stroke="#1e40af" stroke-width="1.2" fill="none" opacity=".35">
    <path d="M60 80 H160 V200 H260"/>
    <path d="M120 80 V160 H220 V280 H320"/>
    <path d="M60 240 H100 V340 H200"/>
    <path d="M200 340 V420 H300"/>
    <path d="M260 200 V300 H320 V380"/>
    <path d="M60 400 H140 V460 H260"/>
  </g>
  <!-- nodes/pads -->
  <circle cx="60" cy="80" r="5" fill="#1e3a8a" stroke="#3b82f6" stroke-width="1" opacity=".7"/>
  <circle cx="160" cy="200" r="5" fill="#1e3a8a" stroke="#3b82f6" stroke-width="1" opacity=".7"/>
  <circle cx="260" cy="200" r="5" fill="#1e3a8a" stroke="#3b82f6" stroke-width="1" opacity=".7"/>
  <circle cx="220" cy="280" r="5" fill="#1e3a8a" stroke="#3b82f6" stroke-width="1" opacity=".7"/>
  <circle cx="100" cy="340" r="5" fill="#1e3a8a" stroke="#3b82f6" stroke-width="1" opacity=".7"/>
  <circle cx="200" cy="340" r="5" fill="#1e3a8a" stroke="#3b82f6" stroke-width="1" opacity=".7"/>
  <circle cx="300" cy="420" r="5" fill="#1e3a8a" stroke="#3b82f6" stroke-width="1" opacity=".7"/>
  <circle cx="320" cy="380" r="5" fill="#1e3a8a" stroke="#3b82f6" stroke-width="1" opacity=".7"/>
  <!-- IC chip -->
  <rect x="130" y="150" width="60" height="50" rx="4" fill="#1e293b" stroke="#3b82f6" stroke-width=".8" opacity=".6"/>
  <g fill="#60a5fa" opacity=".5">
    <rect x="126" y="160" width="8" height="3" rx="1"/>
    <rect x="126" y="170" width="8" height="3" rx="1"/>
    <rect x="126" y="180" width="8" height="3" rx="1"/>
    <rect x="186" y="160" width="8" height="3" rx="1"/>
    <rect x="186" y="170" width="8" height="3" rx="1"/>
    <rect x="186" y="180" width="8" height="3" rx="1"/>
  </g>
  <!-- glow accents -->
  <circle cx="160" cy="175" r="20" fill="#3b82f6" opacity=".06"/>
  <circle cx="260" cy="200" r="14" fill="#60a5fa" opacity=".08"/>
</svg>
